<?xml version="1.0" encoding="UTF-8" standalone="no"?>
<!-- Created with Inkscape (http://www.inkscape.org/) -->

<svg
   width="124.032mm"
   height="124.032mm"
   viewBox="0 0 124.032 124.032"
   version="1.1"
   id="svg1"
   xml:space="preserve"
   inkscape:version="1.4 (86a8ad7, 2024-10-11)"
   sodipodi:docname="favicon.svg"
   xmlns:inkscape="http://www.inkscape.org/namespaces/inkscape"
   xmlns:sodipodi="http://sodipodi.sourceforge.net/DTD/sodipodi-0.dtd"
   xmlns="http://www.w3.org/2000/svg"
   xmlns:svg="http://www.w3.org/2000/svg"><sodipodi:namedview
     id="namedview1"
     pagecolor="#505050"
     bordercolor="#ffffff"
     borderopacity="1"
     inkscape:showpageshadow="0"
     inkscape:pageopacity="0"
     inkscape:pagecheckerboard="1"
     inkscape:deskcolor="#505050"
     inkscape:document-units="mm"
     inkscape:zoom="0.85967312"
     inkscape:cx="450.75272"
     inkscape:cy="642.68614"
     inkscape:window-width="1920"
     inkscape:window-height="1246"
     inkscape:window-x="-11"
     inkscape:window-y="-11"
     inkscape:window-maximized="1"
     inkscape:current-layer="layer1" /><defs
     id="defs1"><inkscape:path-effect
       effect="perspective-envelope"
       up_left_point="188.62207,107.62863"
       up_right_point="217.54,105.13"
       down_left_point="188.62207,163.711"
       down_right_point="216.14391,163.711"
       id="path-effect49"
       is_visible="true"
       lpeversion="1"
       deform_type="perspective"
       horizontal_mirror="false"
       vertical_mirror="false"
       overflow_perspective="false" /><inkscape:path-effect
       effect="perspective-envelope"
       up_left_point="188.62207,107.62863"
       up_right_point="215.94,107.62863"
       down_left_point="30,163.711"
       down_right_point="216.14391,163.711"
       id="path-effect48"
       is_visible="true"
       lpeversion="1"
       deform_type="perspective"
       horizontal_mirror="false"
       vertical_mirror="false"
       overflow_perspective="false" /><filter
       style="color-interpolation-filters:sRGB;"
       inkscape:label="Drop Shadow"
       id="filter155"
       x="-0.41217548"
       y="-0.25248743"
       width="1.824351"
       height="1.576299"><feFlood
         result="flood"
         in="SourceGraphic"
         flood-opacity="1.000000"
         flood-color="rgb(0,63,91)"
         id="feFlood154" /><feGaussianBlur
         result="blur"
         in="SourceGraphic"
         stdDeviation="5.900000"
         id="feGaussianBlur154" /><feOffset
         result="offset"
         in="blur"
         dx="-0.000000"
         dy="4.000000"
         id="feOffset154" /><feComposite
         result="comp1"
         operator="in"
         in="flood"
         in2="offset"
         id="feComposite154" /><feComposite
         result="comp2"
         operator="over"
         in="SourceGraphic"
         in2="comp1"
         id="feComposite155" /></filter></defs><g
     inkscape:label="Layer 1"
     inkscape:groupmode="layer"
     id="layer1"
     transform="translate(-65.555443,-70.172035)"><circle
       style="fill:none;fill-opacity:1;stroke:none;stroke-width:2.29895;stroke-dasharray:12.9063, 4.3021;stroke-opacity:1"
       id="path1"
       cx="127.57144"
       cy="132.18803"
       r="62.015999" /><g
       id="g65"
       transform="matrix(1.9286031,0,0,1.8282233,-247.13576,-88.208855)"
       style="stroke:none;stroke-width:0.414327;stroke-dasharray:none;stroke-opacity:1;filter:url(#filter155)"><path
         id="path55"
         style="font-weight:bold;font-stretch:condensed;font-size:101.6px;font-family:'Agency FB';-inkscape-font-specification:'Agency FB Bold Condensed';fill:#ffffff;fill-opacity:1;stroke:none;stroke-width:0.414327;stroke-dasharray:none;stroke-opacity:1"
         d="m 183.94519,92.511499 v 28.040991 l 3.48198,2.1307 c 1.91502,1.17193 4.29856,2.65463 5.29689,3.2946 l 1.81528,1.16353 v 5.24498 c 0,5.09129 -0.0165,5.26338 -0.56329,5.85756 -0.30984,0.33669 -2.66992,1.86395 -5.24425,3.39388 -2.34906,1.39606 -4.36426,2.54246 -4.78661,2.72683 v 4.22893 h 22.39697 c 3.41628,0 5.12442,-1.70815 5.12442,-5.12443 v -16.66333 c 0,-1.959 -0.64502,-3.49991 -1.9351,-4.62275 -0.16722,-0.16723 -1.67231,-1.12283 -4.51522,-2.86681 2.74736,-1.6962 4.20466,-2.61596 4.37188,-2.7593 1.19451,-1.05116 1.79176,-2.53235 1.79176,-4.44356 V 97.67176 c 0,-3.440173 -1.66036,-5.160261 -4.98108,-5.160261 z" /><path
         style="fill:#21c5e0;fill-opacity:1;stroke:none;stroke-width:0.414327;stroke-dasharray:none;stroke-opacity:1"
         d="m 187.24802,138.67445 c 1.74158,-1.03502 3.33799,-2.06823 3.5476,-2.296 0.3699,-0.40198 0.38107,-0.51833 0.38107,-3.96267 v -3.54854 l -1.22794,-0.78718 c -0.67538,-0.43295 -2.28798,-1.43585 -3.58352,-2.22868 l -2.35555,-1.4415 -0.69319,0.37292 c -0.38127,0.20512 -1.9127,1.11325 -3.4032,2.01808 l -2.71001,1.64515 -0.0455,3.9306 -0.0455,3.9306 0.46888,0.34458 c 0.68181,0.50107 6.20301,3.87798 6.36392,3.89235 0.0749,0.006 1.56123,-0.83468 3.30282,-1.86971 z"
         id="path57" /></g></g></svg>
