<?xml version="1.0" encoding="UTF-8" standalone="no"?>
<!-- Created with Inkscape (http://www.inkscape.org/) -->

<svg
   width="256.06772mm"
   height="147.07999mm"
   viewBox="0 0 256.06772 147.07999"
   version="1.1"
   id="svg1"
   xml:space="preserve"
   inkscape:version="1.4 (86a8ad7, 2024-10-11)"
   sodipodi:docname="blockelect-logo.svg"
   xmlns:inkscape="http://www.inkscape.org/namespaces/inkscape"
   xmlns:sodipodi="http://sodipodi.sourceforge.net/DTD/sodipodi-0.dtd"
   xmlns="http://www.w3.org/2000/svg"
   xmlns:svg="http://www.w3.org/2000/svg"><sodipodi:namedview
     id="namedview1"
     pagecolor="#505050"
     bordercolor="#ffffff"
     borderopacity="1"
     inkscape:showpageshadow="0"
     inkscape:pageopacity="0"
     inkscape:pagecheckerboard="1"
     inkscape:deskcolor="#505050"
     inkscape:document-units="mm"
     inkscape:zoom="0.08"
     inkscape:cx="-3125"
     inkscape:cy="931.25"
     inkscape:window-width="1920"
     inkscape:window-height="1246"
     inkscape:window-x="-11"
     inkscape:window-y="-11"
     inkscape:window-maximized="1"
     inkscape:current-layer="layer1" /><defs
     id="defs1"><marker
       style="overflow:visible"
       id="Square"
       refX="0"
       refY="0"
       orient="auto"
       inkscape:stockid="Square"
       markerWidth="1"
       markerHeight="1"
       viewBox="0 0 1 1"
       inkscape:isstock="true"
       inkscape:collect="always"
       preserveAspectRatio="xMidYMid"><path
         transform="scale(0.5)"
         style="fill:context-stroke;fill-rule:evenodd;stroke:none"
         d="M -5,-5 V 5 H 5 V -5 Z"
         id="path18" /></marker><inkscape:path-effect
       effect="perspective-envelope"
       up_left_point="188.62207,107.62863"
       up_right_point="217.54,105.13"
       down_left_point="188.62207,163.711"
       down_right_point="216.14391,163.711"
       id="path-effect49"
       is_visible="true"
       lpeversion="1"
       deform_type="perspective"
       horizontal_mirror="false"
       vertical_mirror="false"
       overflow_perspective="false" /><inkscape:path-effect
       effect="perspective-envelope"
       up_left_point="188.62207,107.62863"
       up_right_point="215.94,107.62863"
       down_left_point="30,163.711"
       down_right_point="216.14391,163.711"
       id="path-effect48"
       is_visible="true"
       lpeversion="1"
       deform_type="perspective"
       horizontal_mirror="false"
       vertical_mirror="false"
       overflow_perspective="false" /></defs><g
     inkscape:label="Layer 1"
     inkscape:groupmode="layer"
     id="layer1"
     transform="translate(-146.51742,83.060849)"><g
       id="g68"><g
         id="g66"
         transform="translate(2.8938802,-39.770187)"><path
           id="path67"
           style="font-weight:bold;font-stretch:condensed;font-size:73.3911px;font-family:'Agency FB';-inkscape-font-specification:'Agency FB Bold Condensed';fill:none;fill-opacity:1;stroke:#21c5e0;stroke-width:2.16701;stroke-dasharray:52.0081, 52.0081;stroke-dashoffset:0;stroke-opacity:1;marker-start:url(#Square)"
           d="M 234.19101,46.739497 V 79.732721 H 253.2142 V 72.136438 H 241.42909 V 46.739497 Z" /><path
           id="path40"
           style="font-weight:bold;font-stretch:condensed;font-size:73.3911px;font-family:'Agency FB';-inkscape-font-specification:'Agency FB Bold Condensed';fill:#ffffff;stroke-width:6.11591"
           d="m 261.03675,-17.082894 c -3.32076,0 -4.98109,1.719683 -4.98109,5.159887 v 45.79824 c 0,3.41632 1.66033,5.12424 4.98109,5.12424 h 18.20406 c 3.39242,0 5.08909,-1.70792 5.08909,-5.12424 v -45.79824 c 0,-3.440204 -1.69667,-5.159887 -5.08909,-5.159887 z m 3.40444,7.202657 h 11.50318 v 41.67653 h -11.50318 z" /><path
           style="font-weight:bold;font-stretch:condensed;font-size:73.3911px;font-family:'Agency FB';-inkscape-font-specification:'Agency FB Bold Condensed';fill:#ffffff;stroke-width:6.11591"
           d="m 349.93216,38.999473 h -9.24556 l -10.64314,-25.01318 v 25.01318 h -8.38551 V -17.08308 h 8.38551 V 6.640023 l 9.31723,-23.723103 h 9.17388 v 0.39419 L 337.13889,9.936883 Z"
           id="path43" /><path
           style="font-weight:bold;font-stretch:condensed;font-size:73.3911px;font-family:'Agency FB';-inkscape-font-specification:'Agency FB Bold Condensed';fill:#ffffff;stroke-width:6.11591"
           d="m 316.79059,33.874993 q 0,5.12448 -5.12447,5.12448 h -17.48773 q -4.98113,0 -4.98113,-5.12448 v -45.79776 q 0,-5.160313 4.98113,-5.160313 h 17.48773 q 5.12447,0 5.12447,5.160313 v 13.11579 h -8.34967 v -11.07317 h -10.85815 v 41.67668 h 10.85815 v -11.78987 h 8.34967 z"
           id="path42" /><path
           style="font-weight:bold;font-stretch:condensed;font-size:73.3911px;font-family:'Agency FB';-inkscape-font-specification:'Agency FB Bold Condensed';fill:#ffffff;stroke-width:6.11585"
           d="m 251.1883,38.999473 h -22.03861 v -56.082004 h 8.38542 v 48.592454 h 13.65319 z"
           id="path39" /></g><g
         id="g67"
         transform="translate(-94.671224,25.019657)"><path
           style="font-weight:bold;font-stretch:condensed;font-size:73.3911px;font-family:'Agency FB';-inkscape-font-specification:'Agency FB Bold Condensed';fill:#21c5e0;stroke-width:6.11591;fill-opacity:1"
           d="m 497.25637,-9.665137 h -9.24555 v 48.66461 h -8.34968 v -48.66461 h -9.24555 v -7.417943 h 26.84078 z"
           id="path48" /><path
           style="font-weight:bold;font-stretch:condensed;font-size:73.3911px;font-family:'Agency FB';-inkscape-font-specification:'Agency FB Bold Condensed';fill:#21c5e0;stroke-width:6.11591;fill-opacity:1"
           d="m 465.54823,33.874993 q 0,5.12448 -5.12448,5.12448 h -17.48772 q -4.98114,0 -4.98114,-5.12448 v -45.79776 q 0,-5.160313 4.98114,-5.160313 h 17.48772 q 5.12448,0 5.12448,5.160313 v 13.11579 h -8.34967 V -9.880147 H 446.3404 v 41.67668 h 10.85816 v -11.78987 h 8.34967 z"
           id="path47" /><path
           style="font-weight:bold;font-stretch:condensed;font-size:73.3911px;font-family:'Agency FB';-inkscape-font-specification:'Agency FB Bold Condensed';fill:#21c5e0;stroke-width:6.11591;fill-opacity:1"
           d="M 433.08753,38.999473 H 409.8303 V -17.08308 h 23.04222 v 7.417943 H 418.2158 v 16.37683 h 12.6141 v 7.2746 h -12.6141 v 17.59523 h 14.87173 z"
           id="path46" /><path
           style="font-weight:bold;font-stretch:condensed;font-size:73.3911px;font-family:'Agency FB';-inkscape-font-specification:'Agency FB Bold Condensed';fill:#21c5e0;stroke-width:6.11591;fill-opacity:1"
           d="M 404.96295,38.999473 H 382.92412 V -17.08308 h 8.38551 v 48.592933 h 13.65332 z"
           id="path45" /><path
           style="font-weight:bold;font-stretch:condensed;font-size:73.3911px;font-family:'Agency FB';-inkscape-font-specification:'Agency FB Bold Condensed';fill:#21c5e0;stroke-width:6.11591;fill-opacity:1"
           d="M 378.05676,38.999473 H 354.79952 V -17.08308 h 23.04223 v 7.417943 h -14.65672 v 16.37683 h 12.61409 v 7.2746 h -12.61409 v 17.59523 h 14.87173 z"
           id="path44" /></g><g
         id="g65"
         transform="matrix(2.1794485,0,0,2.1794485,-239.48967,-284.15588)"><path
           id="path55"
           style="font-weight:bold;font-stretch:condensed;font-size:101.6px;font-family:'Agency FB';-inkscape-font-specification:'Agency FB Bold Condensed';fill:#ffffff;stroke-width:6.11584;fill-opacity:1"
           d="m 183.94519,92.511499 v 28.040991 l 3.48198,2.1307 c 1.91502,1.17193 4.29856,2.65463 5.29689,3.2946 l 1.81528,1.16353 v 5.24498 c 0,5.09129 -0.0165,5.26338 -0.56329,5.85756 -0.30984,0.33669 -2.66992,1.86395 -5.24425,3.39388 -2.34906,1.39606 -4.36426,2.54246 -4.78661,2.72683 v 4.22893 h 22.39697 c 3.41628,0 5.12442,-1.70815 5.12442,-5.12443 v -16.66333 c 0,-1.959 -0.64502,-3.49991 -1.9351,-4.62275 -0.16722,-0.16723 -1.67231,-1.12283 -4.51522,-2.86681 2.74736,-1.6962 4.20466,-2.61596 4.37188,-2.7593 1.19451,-1.05116 1.79176,-2.53235 1.79176,-4.44356 V 97.67176 c 0,-3.440173 -1.66036,-5.160261 -4.98108,-5.160261 z" /><path
           style="fill:#21c5e0;stroke-width:0.640156;fill-opacity:1"
           d="m 187.24802,138.67445 c 1.74158,-1.03502 3.33799,-2.06823 3.5476,-2.296 0.3699,-0.40198 0.38107,-0.51833 0.38107,-3.96267 v -3.54854 l -1.22794,-0.78718 c -0.67538,-0.43295 -2.28798,-1.43585 -3.58352,-2.22868 l -2.35555,-1.4415 -0.69319,0.37292 c -0.38127,0.20512 -1.9127,1.11325 -3.4032,2.01808 l -2.71001,1.64515 -0.0455,3.9306 -0.0455,3.9306 0.46888,0.34458 c 0.68181,0.50107 6.20301,3.87798 6.36392,3.89235 0.0749,0.006 1.56123,-0.83468 3.30282,-1.86971 z"
           id="path57" /></g></g></g></svg>
